<svg width="1440" height="155" viewBox="0 0 1440 155" fill="none" xmlns="http://www.w3.org/2000/svg">
<path d="M0.153604 98.7503L56.2526 67.8431C131.218 26.5415 222.848 29.9335 294.554 76.6647V76.6647C353.314 114.958 426.257 124.574 492.932 102.815L587.713 71.8846C675.716 43.1659 770.535 42.9387 858.675 71.2352L965.865 105.648C1028.28 125.685 1096.31 117.737 1152.42 83.8536V83.8536C1211.24 48.3347 1283 41.3992 1347.53 64.9945L1439.62 98.6627" stroke="#294936" stroke-width="2"/>
<path d="M1.05186 111.704L57.1509 80.7968C132.117 39.4952 223.746 42.8872 295.453 89.6185V89.6185C354.212 127.912 427.155 137.527 493.831 115.769L588.611 84.8383C676.614 56.1196 771.433 55.8924 859.573 84.1889L966.763 118.601C1029.18 138.639 1097.21 130.691 1153.32 96.8073V96.8073C1212.14 61.2885 1283.9 54.3529 1348.43 77.9482L1440.52 111.616" stroke="#99B794" stroke-width="2"/>
</svg>
