<svg width="64" height="64" viewBox="0 0 64 64" fill="none" xmlns="http://www.w3.org/2000/svg">
<g id="Layer_1">
<g id="Group">
<g id="Icon-Arrow-Left">
<path id="Fill-25" d="M32 55.9C45.2 55.9 55.9 45.2 55.9 32C55.9 18.8 45.2 8.09998 32 8.09998C18.8 8.09998 8.09999 18.8 8.09999 32C8.09999 45.2 18.8 55.9 32 55.9ZM32 10.7C43.7 10.7 53.3 20.3 53.3 32C53.3 43.7 43.7 53.3 32 53.3C20.3 53.3 10.7 43.7 10.7 32C10.7 20.3 20.3 10.7 32 10.7Z" fill="#624736"/>
<path id="Fill-26" d="M32.5 45.7L34.3 43.7999L22.6 31.9999L34.3 20.2L32.5 18.2999L18.8 31.9999L32.5 45.7Z" fill="#624736"/>
<path id="Fill-27" d="M20.7 33.4H44.7V30.6H20.7V33.4Z" fill="#624736"/>
</g>
</g>
</g>
</svg>
