<svg width="64" height="64" viewBox="0 0 64 64" fill="none" xmlns="http://www.w3.org/2000/svg">
<g id="Layer_1">
<g id="Group">
<g id="Icon-Arrow-Left">
<path id="Fill-25" d="M32 55.9C18.8 55.9 8.10001 45.2 8.10001 32C8.10001 18.8 18.8 8.09998 32 8.09998C45.2 8.09998 55.9 18.8 55.9 32C55.9 45.2 45.2 55.9 32 55.9ZM32 10.7C20.3 10.7 10.7 20.3 10.7 32C10.7 43.7 20.3 53.3 32 53.3C43.7 53.3 53.3 43.7 53.3 32C53.3 20.3 43.7 10.7 32 10.7Z" fill="#624736"/>
<path id="Fill-26" d="M31.5 45.7L29.7 43.7999L41.4 31.9999L29.7 20.2L31.5 18.2999L45.2 31.9999L31.5 45.7Z" fill="#624736"/>
<path id="Fill-27" d="M43.3 33.4H19.3V30.6H43.3V33.4Z" fill="#624736"/>
</g>
</g>
</g>
</svg>
