<svg width="70" height="70" viewBox="0 0 70 70" fill="none" xmlns="http://www.w3.org/2000/svg">
<g id="Frame">
<g id="Layer_1">
<g id="IMDB">
<g id="Group">
<path id="Vector" d="M62.3226 4.59141C64.0161 4.70431 65.2581 6.05915 65.2581 7.7527V61.9462C65.2581 63.6398 64.0161 64.9946 62.3226 65.1075H7.56452C5.98388 64.9946 4.74194 63.7527 4.62904 62.1721V7.52689C4.74194 5.94625 5.98388 4.70431 7.56452 4.59141H62.3226ZM62.3226 3.23657H7.67742H7.56452C5.30646 3.34948 3.5 5.15593 3.3871 7.41399V7.52689V62.1721V62.285C3.5 64.543 5.30646 66.2366 7.45162 66.4624H7.56452H62.3226H62.4355C64.6936 66.2366 66.5 64.3172 66.5 61.9462V7.7527C66.6129 5.38173 64.8064 3.46238 62.3226 3.23657Z" fill="black"/>
</g>
<path id="Vector_2" d="M16.0323 25.0269H11.0645V44.4462H16.0323V25.0269Z" fill="black"/>
<path id="Vector_3" fill-rule="evenodd" clip-rule="evenodd" d="M26.7581 25.0269L25.629 34.0591L24.8387 29.2043C24.6129 27.6236 24.3871 26.2688 24.2742 25.0269H17.7258V44.4462H22.129V31.6881L23.9355 44.4462H27.0968L28.9032 31.3494V44.4462H33.3065V25.0269H26.7581Z" fill="black"/>
<path id="Vector_4" fill-rule="evenodd" clip-rule="evenodd" d="M40.9839 44.4462C42.2258 44.4462 43.129 44.3333 43.6935 44.2204C44.2581 44.1075 44.8226 43.8817 45.1613 43.543C45.6129 43.2043 45.8387 42.7527 46.0645 42.1881C46.1774 41.6236 46.2903 40.3817 46.2903 38.6881V31.914C46.2903 30.1075 46.1774 28.8656 46.0645 28.1881C45.9516 27.5107 45.7258 26.9462 45.2742 26.4946C44.8226 25.9301 44.1452 25.5914 43.3548 25.3656C42.5645 25.1398 41.0968 25.0269 38.7258 25.0269H35V44.4462H40.9839ZM41.0968 28.5269C41.3226 28.6398 41.4355 28.8656 41.4355 29.0914C41.5484 29.3172 41.5484 29.8817 41.5484 30.7849V38.3494C41.5484 39.5914 41.4355 40.3817 41.3226 40.7204C41.2097 41.0591 40.7581 41.172 39.9677 41.172V28.414C40.5323 28.414 40.871 28.414 41.0968 28.5269Z" fill="black"/>
<path id="Vector_5" fill-rule="evenodd" clip-rule="evenodd" d="M48.0968 25.027V44.4463H52.6129L52.9516 43.2044C53.4032 43.656 53.8548 44.1076 54.3064 44.3334C54.7581 44.5592 55.5484 44.6721 56.1129 44.6721C56.9032 44.6721 57.5806 44.4463 58.1452 43.9947C58.7097 43.5431 59.0484 43.0915 59.2742 42.527C59.3871 41.9624 59.5 41.0592 59.5 39.9302V34.5108C59.5 33.3818 59.5 32.5915 59.3871 32.2528C59.3871 31.9141 59.1613 31.5754 58.9355 31.1237C58.7097 30.785 58.2581 30.4463 57.8064 30.2205C57.3548 29.9947 56.7903 29.8818 56.1129 29.8818C55.5484 29.8818 54.7581 29.9947 54.3064 30.2205C53.8548 30.4463 53.4032 30.785 52.9516 31.2366V24.9141H48.0968V25.027ZM54.5323 39.7044C54.5323 40.6076 54.5323 41.1721 54.4194 41.5108C54.3064 41.7366 53.9677 41.8495 53.629 41.8495C53.2903 41.8495 53.1774 41.7366 53.0645 41.5108C52.9516 41.285 52.9516 40.7205 52.9516 39.8173V34.7366C52.9516 33.8334 52.9516 33.2689 53.0645 33.0431C53.1774 32.8173 53.4032 32.7044 53.629 32.7044C53.9677 32.7044 54.3064 32.8173 54.4194 33.0431C54.5323 33.2689 54.5323 33.8334 54.5323 34.6237V39.7044Z" fill="black"/>
</g>
</g>
</g>
</svg>
