<svg width="70" height="70" viewBox="0 0 70 70" fill="none" xmlns="http://www.w3.org/2000/svg">
<g id="Frame">
<g id="Layer_1">
<g id="IMDB">
<g id="Group">
<path id="Vector" d="M62.3226 4.5914C64.0161 4.70431 65.2581 6.05914 65.2581 7.75269V61.9462C65.2581 63.6398 64.0161 64.9946 62.3226 65.1075H7.56451C5.98386 64.9946 4.74192 63.7527 4.62902 62.172V7.52689C4.74192 5.94624 5.98386 4.70431 7.56451 4.5914H62.3226ZM62.3226 3.23656H7.67741H7.56451C5.30644 3.34947 3.49999 5.15592 3.38708 7.41398V7.52689V62.172V62.2849C3.49999 64.543 5.30644 66.2366 7.4516 66.4624H7.56451H62.3226H62.4355C64.6935 66.2366 66.5 64.3172 66.5 61.9462V7.75269C66.6129 5.38173 64.8064 3.46237 62.3226 3.23656Z" fill="white"/>
</g>
<path id="Vector_2" d="M16.0323 25.0269H11.0645V44.4462H16.0323V25.0269Z" fill="white"/>
<path id="Vector_3" fill-rule="evenodd" clip-rule="evenodd" d="M26.7581 25.0269L25.629 34.0591L24.8387 29.2043C24.6129 27.6237 24.3871 26.2688 24.2742 25.0269H17.7258V44.4462H22.129V31.6882L23.9355 44.4462H27.0968L28.9032 31.3495V44.4462H33.3064V25.0269H26.7581Z" fill="white"/>
<path id="Vector_4" fill-rule="evenodd" clip-rule="evenodd" d="M40.9839 44.4462C42.2258 44.4462 43.129 44.3333 43.6935 44.2204C44.2581 44.1075 44.8226 43.8817 45.1613 43.543C45.6129 43.2043 45.8387 42.7527 46.0645 42.1882C46.1774 41.6237 46.2903 40.3817 46.2903 38.6882V31.914C46.2903 30.1075 46.1774 28.8656 46.0645 28.1882C45.9516 27.5108 45.7258 26.9462 45.2742 26.4946C44.8226 25.9301 44.1452 25.5914 43.3548 25.3656C42.5645 25.1398 41.0968 25.0269 38.7258 25.0269H35V44.4462H40.9839ZM41.0968 28.5269C41.3226 28.6398 41.4355 28.8656 41.4355 29.0914C41.5484 29.3172 41.5484 29.8817 41.5484 30.7849V38.3495C41.5484 39.5914 41.4355 40.3817 41.3226 40.7204C41.2097 41.0591 40.7581 41.172 39.9677 41.172V28.414C40.5323 28.414 40.871 28.414 41.0968 28.5269Z" fill="white"/>
<path id="Vector_5" fill-rule="evenodd" clip-rule="evenodd" d="M48.0968 25.0269V44.4462H52.6129L52.9516 43.2043C53.4032 43.6559 53.8548 44.1075 54.3064 44.3333C54.7581 44.5591 55.5484 44.6721 56.1129 44.6721C56.9032 44.6721 57.5806 44.4462 58.1452 43.9946C58.7097 43.543 59.0484 43.0914 59.2742 42.5269C59.3871 41.9624 59.5 41.0591 59.5 39.9301V34.5108C59.5 33.3817 59.5 32.5914 59.3871 32.2527C59.3871 31.914 59.1613 31.5753 58.9355 31.1237C58.7097 30.785 58.2581 30.4462 57.8064 30.2204C57.3548 29.9946 56.7903 29.8817 56.1129 29.8817C55.5484 29.8817 54.7581 29.9946 54.3064 30.2204C53.8548 30.4462 53.4032 30.785 52.9516 31.2366V24.914H48.0968V25.0269ZM54.5323 39.7043C54.5323 40.6075 54.5323 41.172 54.4194 41.5108C54.3064 41.7366 53.9677 41.8495 53.629 41.8495C53.2903 41.8495 53.1774 41.7366 53.0645 41.5108C52.9516 41.285 52.9516 40.7204 52.9516 39.8172V34.7366C52.9516 33.8333 52.9516 33.2688 53.0645 33.043C53.1774 32.8172 53.4032 32.7043 53.629 32.7043C53.9677 32.7043 54.3064 32.8172 54.4194 33.043C54.5323 33.2688 54.5323 33.8333 54.5323 34.6237V39.7043Z" fill="white"/>
</g>
</g>
</g>
</svg>
