<svg width="80" height="80" viewBox="0 0 80 80" fill="none" xmlns="http://www.w3.org/2000/svg">
<g id="Frame">
<g id="Layer 2">
<path id="Vector" d="M20.075 28.5125H5.825C5.36936 28.5125 5 28.8818 5 29.3375V73.0125C5 73.4681 5.36936 73.8375 5.825 73.8375H20.075C20.5306 73.8375 20.9 73.4681 20.9 73.0125V29.3375C20.9 28.8818 20.5306 28.5125 20.075 28.5125Z" stroke="black" stroke-width="2" stroke-miterlimit="10"/>
<path id="Vector_2" d="M75 45V72.5C75 72.8547 74.8591 73.1949 74.6083 73.4457C74.3574 73.6965 74.0172 73.8375 73.6625 73.8375H60.425C60.0703 73.8375 59.7301 73.6965 59.4792 73.4457C59.2284 73.1949 59.0875 72.8547 59.0875 72.5V46.9625C59.1046 45.7745 58.8795 44.5955 58.4261 43.4973C57.9726 42.3991 57.3003 41.4048 56.45 40.575C55.2145 39.3174 53.5374 38.591 51.775 38.55C50.6399 38.5575 49.5224 38.8316 48.5125 39.35C47.1038 40.093 45.9284 41.2116 45.1164 42.5817C44.3045 43.9518 43.8878 45.52 43.9125 47.1125V72.5C43.9125 72.8547 43.7716 73.1949 43.5208 73.4457C43.2699 73.6965 42.9297 73.8375 42.575 73.8375H29.3625C29.0099 73.8342 28.6729 73.6918 28.4248 73.4413C28.1767 73.1908 28.0375 72.8525 28.0375 72.5V29.85C28.0375 29.4952 28.1784 29.155 28.4292 28.9042C28.6801 28.6534 29.0203 28.5125 29.375 28.5125H42.5875C42.9422 28.5125 43.2824 28.6534 43.5333 28.9042C43.7841 29.155 43.925 29.4952 43.925 29.85V33.75C46.5875 31.475 50.2875 28.75 59.1 28.75C61.2115 28.7712 63.2981 29.2085 65.2404 30.037C67.1828 30.8654 68.9427 32.0687 70.4195 33.5781C71.8963 35.0874 73.061 36.873 73.847 38.8329C74.6329 40.7928 75.0248 42.8885 75 45Z" stroke="black" stroke-width="2" stroke-miterlimit="10"/>
<path id="Vector_3" d="M12.95 22.0499C17.3407 22.0499 20.9 18.4906 20.9 14.0999C20.9 9.70924 17.3407 6.1499 12.95 6.1499C8.55934 6.1499 5 9.70924 5 14.0999C5 18.4906 8.55934 22.0499 12.95 22.0499Z" stroke="black" stroke-width="2" stroke-miterlimit="10"/>
</g>
</g>
</svg>
