<svg width="75" height="75" viewBox="0 0 75 75" fill="none" xmlns="http://www.w3.org/2000/svg">
<g id="Layer_1">
<path id="Vector" d="M50.8008 11.7188C54.0674 11.7188 57.2168 13.0811 59.4434 15.4688L60.3369 16.4209L61.6113 16.1719C62.2705 16.04 62.915 15.8936 63.5596 15.7178C63.4131 15.9229 62.7246 16.6113 61.9482 17.2998C61.2891 17.8857 59.3408 19.7168 59.3408 19.7168C59.3408 19.7168 61.2451 20.3174 62.4316 20.4492C63.6182 20.5811 64.9805 20.3613 65.2002 20.332C64.79 20.6689 64.0576 21.1816 63.6182 21.4893L62.5928 22.2363L62.6514 23.4961C62.6807 24.0527 62.6953 24.6387 62.6953 25.2246C62.6953 29.6484 61.8311 34.2773 60.2051 38.6279C58.4912 43.1982 56.0303 47.3291 52.8809 50.9033C49.5117 54.7266 45.5273 57.7148 41.001 59.8096C36.0498 62.1094 30.5566 63.2666 24.668 63.2666C20.4346 63.2666 16.2598 62.5635 12.29 61.1865C13.7402 60.9082 15.1611 60.5127 16.5527 60.0293C19.7314 58.916 22.6904 57.29 25.3564 55.1953L30.5273 51.1377L23.9502 51.0205C20.127 50.9473 16.6699 49.0576 14.5312 46.0547C15.6006 45.9814 16.6553 45.791 17.6807 45.5127L26.5723 42.5537L17.5342 40.957C13.1982 40.0928 9.79981 36.8701 8.55469 32.7832C9.69727 33.0762 10.8105 33.1934 12.0557 33.2666C12.0557 33.2666 16.7139 33.4717 20.2295 33.252C18.3252 32.3438 13.4326 28.9746 13.4326 28.9746C10.1367 26.7627 8.15918 23.0859 8.15918 19.1016C8.15918 18.1641 8.27637 17.2266 8.48145 16.3184C11.6895 19.5996 15.3662 22.3389 19.4824 24.4482C24.9023 27.2461 30.7471 28.8135 36.8555 29.1211L39.9609 29.2822L39.2578 26.25C39.0527 25.3857 38.9502 24.4775 38.9502 23.54C38.9502 17.0361 44.2676 11.7188 50.8008 11.7188ZM50.8008 9.375C42.9639 9.375 36.6211 15.7324 36.6211 23.5693C36.6211 24.6826 36.7383 25.7666 36.9873 26.8066C25.1953 26.2207 14.7363 20.5664 7.74902 11.9678C6.5332 14.0625 5.83008 16.5088 5.83008 19.1016C5.83008 24.0234 8.33496 28.374 12.1436 30.9229C9.81445 30.8643 7.61719 30.2197 5.71289 29.1504C5.71289 29.209 5.71289 29.2676 5.71289 29.3262C5.71289 36.2109 10.6055 41.9385 17.0947 43.2422C15.9082 43.5645 14.6484 43.7402 13.3594 43.7402C12.4512 43.7402 11.5576 43.6523 10.6934 43.4766C12.4951 49.1162 17.7393 53.2178 23.9502 53.335C19.1016 57.1436 12.9785 59.4141 6.32812 59.4141C5.18555 59.4141 4.05762 59.3408 2.94434 59.209C9.21387 63.2812 16.6699 65.625 24.668 65.625C50.7715 65.625 65.0391 43.9893 65.0391 25.2246C65.0391 24.6094 65.0244 23.9941 64.9951 23.3936C67.7637 21.3867 70.166 18.8965 72.0703 16.04C69.5215 17.168 66.7969 17.9297 63.9258 18.2812C66.8555 16.5234 69.1113 13.7402 70.166 10.4297C67.4268 12.0557 64.3945 13.2422 61.1572 13.8721C58.5645 11.1035 54.873 9.375 50.8008 9.375Z" fill="white"/>
</g>
</svg>
